<?xml version="1.0" encoding="UTF-8"?><svg id="Layer_1" xmlns="http://www.w3.org/2000/svg" viewBox="0 0 318.24 217.02"><defs><style>.cls-1{stroke:#63ba8f;}.cls-1,.cls-2,.cls-3,.cls-4,.cls-5,.cls-6,.cls-7,.cls-8,.cls-9,.cls-10{stroke-linecap:round;}.cls-1,.cls-2,.cls-3,.cls-5,.cls-6,.cls-8,.cls-9{stroke-linejoin:round;}.cls-1,.cls-2,.cls-4,.cls-5,.cls-6,.cls-7,.cls-8,.cls-11,.cls-9,.cls-12,.cls-10,.cls-13{fill:none;}.cls-1,.cls-3,.cls-4,.cls-5,.cls-6,.cls-8,.cls-9,.cls-10{stroke-width:5px;}.cls-2,.cls-3,.cls-4,.cls-5,.cls-7,.cls-14,.cls-11,.cls-15,.cls-13{stroke:#1d1d1b;}.cls-2,.cls-7,.cls-14,.cls-15,.cls-13{stroke-width:4.72px;}.cls-3,.cls-16,.cls-15{fill:#63ba8f;}.cls-4,.cls-7,.cls-14,.cls-11,.cls-15,.cls-10,.cls-13{stroke-miterlimit:10;}.cls-6{stroke:#c86191;}.cls-8,.cls-10{stroke:#fff;}.cls-14{fill:#008d66;}.cls-11{stroke-width:7.64px;}.cls-9{stroke:#008d66;}.cls-17{fill:#1d1d1b;}</style></defs><rect class="cls-12" width="318.24" height="217.02"/><polyline class="cls-9" points="220.87 111.51 272.16 76.78 256.71 61.33"/><circle class="cls-16" cx="256.71" cy="61.33" r="9.17"/><path class="cls-7" d="M207.15,41.21c7.95-19.56,27.14-33.35,49.56-33.35,29.53,0,53.48,23.94,53.48,53.48,0,22.15-13.47,41.16-32.66,49.27"/><path class="cls-7" d="M226.78,33.1c7.5-7.95,18.14-12.92,29.94-12.92,22.73,0,41.15,18.42,41.15,41.15,0,14.2-7.2,26.73-18.14,34.12"/><circle class="cls-16" cx="272.16" cy="75.96" r="9.17"/><path class="cls-4" d="M230.04,111.51c0,5.07-4.11,9.17-9.17,9.17s-9.17-4.11-9.17-9.17,4.11-9.17,9.17-9.17"/><path class="cls-14" d="M172.09,62.42l25.26,25.26c2.25,2.25,6.1,.66,6.1-2.53v-25.26c0-1.97-1.6-3.57-3.57-3.57h-25.26c-3.18,0-4.78,3.85-2.53,6.1Z"/><path class="cls-15" d="M39.58,198.5h35.72c3.18,0,4.78-3.85,2.53-6.1l-17.86-17.86c-1.4-1.4-3.66-1.4-5.05,0l-17.86,17.86c-2.25,2.25-.66,6.1,2.53,6.1Z"/><path class="cls-17" d="M57.44,29.32c15.71,0,28.44,12.73,28.44,28.44s-12.73,28.44-28.44,28.44-28.44-12.73-28.44-28.44,12.73-28.44,28.44-28.44m0-7.64c-19.9,0-36.08,16.19-36.08,36.08s16.19,36.08,36.08,36.08,36.08-16.19,36.08-36.08S77.33,21.68,57.44,21.68h0Z"/><polygon class="cls-3" points="148.49 150.61 112.66 150.61 90.5 128.44 82.67 106.02 105.63 83.06 153.8 74.7 190.16 98.32 201.57 135.48 183.25 168.39 153 162.28 148.49 150.61"/><polyline class="cls-4" points="129.38 104.03 129.38 121.54 90.5 128.44"/><polyline class="cls-4" points="153.88 75.96 155.12 95 151.2 124.73"/><line class="cls-4" x1="129.38" y1="121.54" x2="164.15" y2="128.98"/><polyline class="cls-5" points="152.47 170.11 160.17 182.32 181.66 185.23 183.25 176.21"/><polyline class="cls-4" points="187.24 128.51 173.06 139.17 175.28 153.9"/><rect class="cls-3" x="236.28" y="126.1" width="59.21" height="27.63" rx="12" ry="12" transform="translate(176.82 -147.03) rotate(45)"/><rect class="cls-5" x="235.25" y="149.22" width="12.23" height="20.29" rx="6.12" ry="6.12" transform="translate(82 400.74) rotate(-90)"/><rect class="cls-5" x="235.25" y="169.22" width="12.23" height="20.29" rx="6.12" ry="6.12" transform="translate(62.01 420.73) rotate(-90)"/><g><rect class="cls-3" x="203.19" y="184.25" width="12.23" height="20.29" rx="6.12" ry="6.12" transform="translate(418.61 388.79) rotate(180)"/><rect class="cls-3" x="267.31" y="184.25" width="12.23" height="20.29" rx="6.12" ry="6.12" transform="translate(546.86 388.79) rotate(180)"/><line class="cls-5" x1="216.35" y1="194.4" x2="266.39" y2="194.4"/></g><line class="cls-6" x1="273.43" y1="146.97" x2="278.47" y2="152.01"/><line class="cls-8" x1="254.3" y1="127.83" x2="266.85" y2="140.39"/><line class="cls-6" x1="254.21" y1="60.59" x2="211.76" y2="60.59"/><line class="cls-5" x1="238.46" y1="68" x2="211.76" y2="68"/><line class="cls-5" x1="234.1" y1="75.96" x2="211.76" y2="75.96"/><line class="cls-5" x1="226.78" y1="83.92" x2="211.76" y2="83.92"/><line class="cls-5" x1="210.85" y1="53.18" x2="219.09" y2="44.93"/><line class="cls-5" x1="144.49" y1="53.18" x2="152.74" y2="44.93"/><line class="cls-5" x1="131.5" y1="53.18" x2="139.74" y2="44.93"/><line class="cls-5" x1="138.57" y1="192.47" x2="138.57" y2="180.81"/><line class="cls-5" x1="129.38" y1="201.66" x2="129.38" y2="190"/><line class="cls-5" x1="300.65" y1="118.44" x2="300.65" y2="106.78"/><line class="cls-5" x1="291.46" y1="127.63" x2="291.46" y2="115.97"/><circle class="cls-13" cx="85.3" cy="167.08" r="15.61"/><circle class="cls-14" cx="29.58" cy="167.29" r="15.61"/><line class="cls-9" x1="256.71" y1="37.42" x2="256.71" y2="45.95"/><line class="cls-6" x1="268.48" y1="50.35" x2="274.83" y2="44"/><line class="cls-1" x1="273.67" y1="60.59" x2="280.16" y2="60.59"/><g><circle class="cls-16" cx="85.3" cy="160.97" r="3.75"/><circle class="cls-16" cx="85.3" cy="173.2" r="3.75"/><circle class="cls-16" cx="79.18" cy="167.08" r="3.75"/><circle class="cls-16" cx="91.41" cy="167.08" r="3.75"/></g><line class="cls-10" x1="29.58" y1="159.44" x2="29.58" y2="174.57"/><line class="cls-10" x1="22.02" y1="167.01" x2="37.14" y2="167.01"/><polyline class="cls-2" points="50.56 158.69 57.51 151.74 64.32 158.55"/><polyline class="cls-2" points="50.56 142.92 57.51 135.97 64.32 142.78"/><polyline class="cls-2" points="50.56 127.16 57.51 120.21 64.32 127.02"/><polyline class="cls-5" points="225.11 159.38 214.97 159.38 214.97 132.97"/><line class="cls-7" x1="160.89" y1="60.59" x2="122.6" y2="60.59"/><line class="cls-11" x1="91.06" y1="60.59" x2="112.9" y2="60.59"/><line class="cls-11" x1="57.44" y1="86.2" x2="57.44" y2="113.33"/><polyline class="cls-2" points="85.3 195.61 107.17 195.61 139.29 163.5"/><polyline class="cls-5" points="192.66 194.4 172.27 194.4 172.27 186.95"/><line class="cls-11" x1="36" y1="35.53" x2="19.46" y2="18.99"/></svg>